<?xml version="1.0" encoding="UTF-8"?>
<svg width="512px" height="512px" viewBox="0 0 512 512" version="1.1" xmlns="http://www.w3.org/2000/svg" xmlns:xlink="http://www.w3.org/1999/xlink">
    <title>icon</title>
    <defs>
        <path d="M0,0 L512,0 L512,512 L0,512 L0,0 Z" id="path-1"></path>
        <rect id="path-2" x="0" y="0" width="488" height="488"></rect>
        <filter x="-2.5%" y="-2.5%" width="109.8%" height="109.8%" filterUnits="objectBoundingBox" id="filter-3">
            <feOffset dx="24" dy="24" in="SourceAlpha" result="shadowOffsetOuter1"></feOffset>
            <feColorMatrix values="0 0 0 0 0   0 0 0 0 0   0 0 0 0 0  0 0 0 1 0" type="matrix" in="shadowOffsetOuter1"></feColorMatrix>
        </filter>
    </defs>
    <g id="icon" stroke="none" fill="none" xlink:href="#path-1">
        <use fill="#FFFFFF" fill-rule="evenodd" xlink:href="#path-1"></use>
        <g id="Rectangle">
            <use fill="black" fill-opacity="1" filter="url(#filter-3)" xlink:href="#path-2"></use>
            <use fill="#69EBD0" fill-rule="evenodd" xlink:href="#path-2"></use>
        </g>
        <g id="PASWD" stroke-width="1" fill-rule="evenodd" transform="translate(21, 180)" fill="#000000">
            <path d="M12.128,120 C11.2213333,120 10.4586667,119.690667 9.84,119.072 C9.22133333,118.453333 8.912,117.690667 8.912,116.784 L8.912,33.664 C8.912,32.7253333 9.22133333,31.9466667 9.84,31.328 C10.4586667,30.7093333 11.2213333,30.4 12.128,30.4 L48.032,30.4 C55.1253333,30.4 61.296,31.4826667 66.544,33.648 C71.792,35.8133333 75.872,39.0853333 78.784,43.464 C81.696,47.8426667 83.152,53.3333333 83.152,59.936 C83.152,66.5386667 81.696,71.976 78.784,76.248 C75.872,80.52 71.792,83.6853333 66.544,85.744 C61.296,87.8026667 55.1253333,88.832 48.032,88.832 L32.736,88.832 L32.736,116.784 C32.736,117.690667 32.4266667,118.453333 31.808,119.072 C31.1893333,119.690667 30.4106667,120 29.472,120 L12.128,120 Z M32.336,71.152 L47.392,71.152 C51.0293333,71.152 53.928,70.2106667 56.088,68.328 C58.248,66.4453333 59.328,63.5946667 59.328,59.776 C59.328,56.4906667 58.3946667,53.7333333 56.528,51.504 C54.6613333,49.2746667 51.616,48.16 47.392,48.16 L32.336,48.16 L32.336,71.152 Z" id="Shape" fill-rule="nonzero"></path>
            <path d="M84.24,120 C83.504,120 82.8666667,119.730667 82.328,119.192 C81.7893333,118.653333 81.52,118.016 81.52,117.28 C81.52,116.906667 81.5786667,116.544 81.696,116.192 L111.68,34 C111.968,33.0933333 112.509333,32.2666667 113.304,31.52 C114.098667,30.7733333 115.221333,30.4 116.672,30.4 L135.664,30.4 C137.114667,30.4 138.237333,30.7733333 139.032,31.52 C139.826667,32.2666667 140.368,33.0933333 140.656,34 L170.64,116.192 C170.757333,116.544 170.816,116.906667 170.816,117.28 C170.816,118.016 170.546667,118.653333 170.008,119.192 C169.469333,119.730667 168.832,120 168.096,120 L152.336,120 C151.002667,120 150.029333,119.685333 149.416,119.056 C148.802667,118.426667 148.384,117.834667 148.16,117.28 L143.264,104.32 L109.072,104.32 L104.176,117.28 C103.984,117.834667 103.586667,118.426667 102.984,119.056 C102.381333,119.685333 101.386667,120 100,120 L84.24,120 Z M114.304,85.84 L138.032,85.84 L126.128,52.048 L114.304,85.84 Z" id="Shape" fill-rule="nonzero"></path>
            <path d="M212.96,121.28 C204.448,121.28 197.368,120.064 191.72,117.632 C186.072,115.2 181.808,112.021333 178.928,108.096 C176.048,104.170667 174.522667,100.005333 174.352,95.6 C174.352,94.864 174.621333,94.2266667 175.16,93.688 C175.698667,93.1493333 176.352,92.88 177.12,92.88 L193.28,92.88 C194.453333,92.88 195.354667,93.096 195.984,93.528 C196.613333,93.96 197.210667,94.5173333 197.776,95.2 C198.437333,96.4693333 199.384,97.6906667 200.616,98.864 C201.848,100.037333 203.48,100.986667 205.512,101.712 C207.544,102.437333 210.026667,102.8 212.96,102.8 C217.909333,102.8 221.650667,102.032 224.184,100.496 C226.717333,98.96 227.984,96.8853333 227.984,94.272 C227.984,92.352 227.301333,90.7866667 225.936,89.576 C224.570667,88.3653333 222.373333,87.2746667 219.344,86.304 C216.314667,85.3333333 212.266667,84.304 207.2,83.216 C200.714667,81.8933333 195.189333,80.1466667 190.624,77.976 C186.058667,75.8053333 182.592,72.9466667 180.224,69.4 C177.856,65.8533333 176.672,61.44 176.672,56.16 C176.672,50.9013333 178.130667,46.2373333 181.048,42.168 C183.965333,38.0986667 188.074667,34.9066667 193.376,32.592 C198.677333,30.2773333 204.938667,29.12 212.16,29.12 C218.048,29.12 223.242667,29.896 227.744,31.448 C232.245333,33 236.026667,35.04 239.088,37.568 C242.149333,40.096 244.48,42.808 246.08,45.704 C247.68,48.6 248.522667,51.392 248.608,54.08 C248.608,54.784 248.354667,55.4133333 247.848,55.968 C247.341333,56.5226667 246.698667,56.8 245.92,56.8 L228.96,56.8 C228.053333,56.8 227.253333,56.6293333 226.56,56.288 C225.866667,55.9466667 225.248,55.3706667 224.704,54.56 C224.245333,52.6933333 222.912,51.0666667 220.704,49.68 C218.496,48.2933333 215.648,47.6 212.16,47.6 C208.458667,47.6 205.549333,48.264 203.432,49.592 C201.314667,50.92 200.256,52.9226667 200.256,55.6 C200.256,57.36 200.832,58.8613333 201.984,60.104 C203.136,61.3466667 205.072,62.44 207.792,63.384 C210.512,64.328 214.208,65.328 218.88,66.384 C226.613333,67.792 232.877333,69.5866667 237.672,71.768 C242.466667,73.9493333 245.981333,76.7653333 248.216,80.216 C250.450667,83.6666667 251.568,88.0053333 251.568,93.232 C251.568,99.0773333 249.92,104.093333 246.624,108.28 C243.328,112.466667 238.784,115.68 232.992,117.92 C227.2,120.16 220.522667,121.28 212.96,121.28 Z" id="Path" fill-rule="nonzero"></path>
            <path d="M277.632,120 C276.181333,120 275.032,119.578667 274.184,118.736 C273.336,117.893333 272.810667,116.917333 272.608,115.808 L258.672,33.936 C258.64,33.7546667 258.616,33.5946667 258.6,33.456 C258.584,33.3173333 258.576,33.2053333 258.576,33.12 C258.576,32.384 258.845333,31.7466667 259.384,31.208 C259.922667,30.6693333 260.56,30.4 261.296,30.4 L277.184,30.4 C279.552,30.4 280.864,31.36 281.12,33.28 L289.456,83.2 L298.688,53.664 C298.890667,53.0026667 299.298667,52.2666667 299.912,51.456 C300.525333,50.6453333 301.52,50.24 302.896,50.24 L312.112,50.24 C313.52,50.24 314.522667,50.6453333 315.12,51.456 C315.717333,52.2666667 316.117333,53.0026667 316.32,53.664 L325.552,83.12 L333.888,33.28 C334.144,31.36 335.456,30.4 337.824,30.4 L353.712,30.4 C354.448,30.4 355.085333,30.6693333 355.624,31.208 C356.162667,31.7466667 356.432,32.384 356.432,33.12 C356.432,33.2053333 356.424,33.3173333 356.408,33.456 C356.392,33.5946667 356.368,33.7546667 356.336,33.936 L342.4,115.808 C342.250667,116.917333 341.738667,117.893333 340.864,118.736 C339.989333,119.578667 338.826667,120 337.376,120 L325.216,120 C323.765333,120 322.666667,119.624 321.92,118.872 C321.173333,118.12 320.682667,117.392 320.448,116.688 L307.504,80.032 L294.56,116.688 C294.325333,117.392 293.834667,118.12 293.088,118.872 C292.341333,119.624 291.242667,120 289.792,120 L277.632,120 Z" id="Path" fill-rule="nonzero"></path>
            <path d="M372.784,120 C371.877333,120 371.114667,119.690667 370.496,119.072 C369.877333,118.453333 369.568,117.690667 369.568,116.784 L369.568,33.664 C369.568,32.7253333 369.877333,31.9466667 370.496,31.328 C371.114667,30.7093333 371.877333,30.4 372.784,30.4 L406.048,30.4 C414.453333,30.4 421.589333,31.736 427.456,34.408 C433.322667,37.08 437.850667,41.0106667 441.04,46.2 C444.229333,51.3893333 445.92,57.776 446.112,65.36 C446.250667,69.0933333 446.32,72.3786667 446.32,75.216 C446.32,78.0533333 446.250667,81.2853333 446.112,84.912 C445.834667,92.8693333 444.176,99.448 441.136,104.648 C438.096,109.848 433.698667,113.706667 427.944,116.224 C422.189333,118.741333 415.104,120 406.688,120 L372.784,120 Z M392.592,101.52 L406.048,101.52 C409.781333,101.52 412.858667,100.949333 415.28,99.808 C417.701333,98.6666667 419.533333,96.856 420.776,94.376 C422.018667,91.896 422.682667,88.6613333 422.768,84.672 C422.906667,82.1653333 422.989333,79.9386667 423.016,77.992 C423.042667,76.0453333 423.042667,74.0933333 423.016,72.136 C422.989333,70.1786667 422.906667,68 422.768,65.6 C422.597333,59.84 421.074667,55.6133333 418.2,52.92 C415.325333,50.2266667 411.061333,48.88 405.408,48.88 L392.592,48.88 L392.592,101.52 Z" id="Shape" fill-rule="nonzero"></path>
        </g>
    </g>
</svg>
